<svg version="1.1" id="Layer_1" xmlns="http://www.w3.org/2000/svg" xmlns:xlink="http://www.w3.org/1999/xlink" x="0px" y="0px"
	 width="100%" viewBox="0 0 1024 1024" enable-background="new 0 0 1024 1024" xml:space="preserve">
<path fill="#FDFDFD" opacity="1.000000" stroke="none"
	d="
M700.000000,1025.000000
	C466.666656,1025.000000 233.833328,1025.000000 1.000000,1025.000000
	C1.000000,683.666687 1.000000,342.333344 1.000000,1.000000
	C342.333344,1.000000 683.666687,1.000000 1025.000000,1.000000
	C1025.000000,342.333344 1025.000000,683.666687 1025.000000,1025.000000
	C916.833313,1025.000000 808.666687,1025.000000 700.000000,1025.000000
M636.500000,860.997559
	C664.621948,860.666931 692.761719,860.813843 720.857117,859.768982
	C731.991089,859.354858 743.316040,857.309265 754.053345,854.249512
	C787.480652,844.723999 815.119141,826.364929 835.681152,797.940735
	C855.377258,770.713440 865.581055,739.906555 865.743958,706.728027
	C866.353455,582.581726 866.074707,458.430450 865.859253,334.281494
	C865.836609,321.239777 864.893433,308.067078 862.890930,295.186249
	C856.926453,256.820984 838.462341,225.288513 808.311584,200.885712
	C779.037170,177.192062 744.717163,166.371140 707.646606,166.210129
	C582.499817,165.666534 457.349121,166.041870 332.200012,165.959335
	C312.699524,165.946487 293.433258,167.565735 274.686829,173.080170
	C249.308151,180.545517 226.385773,192.385605 207.253265,211.134201
	C192.261246,225.825333 181.260757,243.044739 173.438339,262.334900
	C165.828140,281.101715 161.853058,300.548859 161.885452,320.994110
	C162.086197,447.642761 162.041595,574.291931 161.911072,700.940796
	C161.896255,715.308838 163.207901,729.391052 167.018173,743.239746
	C175.932327,775.638916 191.919815,803.477783 218.342529,825.000793
	C248.029526,849.182800 282.266205,860.703857 320.044678,860.853394
	C425.195007,861.269592 530.348022,860.997681 636.500000,860.997559
z"/>
<path fill="#E8E9E9" opacity="1.000000" stroke="none"
	d="
M636.000000,860.997559
	C530.348022,860.997681 425.195007,861.269592 320.044678,860.853394
	C282.266205,860.703857 248.029526,849.182800 218.342529,825.000793
	C191.919815,803.477783 175.932327,775.638916 167.018173,743.239746
	C163.207901,729.391052 161.896255,715.308838 161.911072,700.940796
	C162.041595,574.291931 162.086197,447.642761 161.885452,320.994110
	C161.853058,300.548859 165.828140,281.101715 173.438339,262.334900
	C181.260757,243.044739 192.261246,225.825333 207.253265,211.134201
	C226.385773,192.385605 249.308151,180.545517 274.686829,173.080170
	C293.433258,167.565735 312.699524,165.946487 332.200012,165.959335
	C457.349121,166.041870 582.499817,165.666534 707.646606,166.210129
	C744.717163,166.371140 779.037170,177.192062 808.311584,200.885712
	C838.462341,225.288513 856.926453,256.820984 862.890930,295.186249
	C864.893433,308.067078 865.836609,321.239777 865.859253,334.281494
	C866.074707,458.430450 866.353455,582.581726 865.743958,706.728027
	C865.581055,739.906555 855.377258,770.713440 835.681152,797.940735
	C815.119141,826.364929 787.480652,844.723999 754.053345,854.249512
	C743.316040,857.309265 731.991089,859.354858 720.857117,859.768982
	C692.761719,860.813843 664.621948,860.666931 636.000000,860.997559
M281.360413,676.323425
	C283.311035,676.543213 285.261505,676.953064 287.212341,676.954895
	C327.045624,676.992310 366.878967,676.982849 406.712280,676.983093
	C518.878906,676.983765 631.045593,676.992249 743.212158,676.921387
	C745.129944,676.920166 747.046997,675.960510 749.668274,675.138733
	C761.393982,671.871277 765.858704,661.513245 759.772278,651.071716
	C732.123352,603.638184 704.465515,556.209106 676.531616,508.943542
	C674.302734,505.172180 670.414307,501.742645 666.488098,499.741516
	C657.244873,495.030273 646.990601,498.831665 640.268005,508.686188
	C628.355042,526.149048 616.540527,543.679016 604.668640,561.169922
	C601.584106,565.714417 598.761719,570.501892 595.155640,574.593201
	C593.824646,576.103271 589.993347,577.057190 588.376160,576.211426
	C586.704346,575.337158 585.818115,572.024292 585.567139,569.673645
	C585.375732,567.880737 586.684692,565.914368 587.374084,564.042847
	C593.063721,548.597717 599.666687,533.418762 604.245911,517.651733
	C610.763611,495.210144 612.603149,472.422913 597.813721,452.065247
	C575.306702,421.084229 552.340332,390.433899 529.324158,359.827271
	C520.479858,348.066254 510.020050,348.897614 502.261993,361.474426
	C479.461578,398.436768 456.691315,435.417755 433.925690,472.401581
	C419.271118,496.208588 404.668610,520.047668 389.992615,543.841431
	C385.706970,550.789612 383.026764,551.261230 376.276611,546.629028
	C371.609985,543.426575 366.917999,540.261108 362.255646,537.052551
	C350.996155,529.304016 343.156128,530.922302 336.082733,542.444519
	C314.145111,578.180054 292.205811,613.914551 270.251434,649.639832
	C262.740692,661.861816 266.934875,672.215637 281.360413,676.323425
z"/>
<path fill="#272727" opacity="1.000000" stroke="none"
	d="
M280.817291,675.616943
	C266.934875,672.215637 262.740692,661.861816 270.251434,649.639832
	C292.205811,613.914551 314.145111,578.180054 336.082733,542.444519
	C343.156128,530.922302 350.996155,529.304016 362.255646,537.052551
	C366.917999,540.261108 371.609985,543.426575 376.276611,546.629028
	C383.026764,551.261230 385.706970,550.789612 389.992615,543.841431
	C404.668610,520.047668 419.271118,496.208588 433.925690,472.401581
	C456.691315,435.417755 479.461578,398.436768 502.261993,361.474426
	C510.020050,348.897614 520.479858,348.066254 529.324158,359.827271
	C552.340332,390.433899 575.306702,421.084229 597.813721,452.065247
	C612.603149,472.422913 610.763611,495.210144 604.245911,517.651733
	C599.666687,533.418762 593.063721,548.597717 587.374084,564.042847
	C586.684692,565.914368 585.375732,567.880737 585.567139,569.673645
	C585.818115,572.024292 586.704346,575.337158 588.376160,576.211426
	C589.993347,577.057190 593.824646,576.103271 595.155640,574.593201
	C598.761719,570.501892 601.584106,565.714417 604.668640,561.169922
	C616.540527,543.679016 628.355042,526.149048 640.268005,508.686188
	C646.990601,498.831665 657.244873,495.030273 666.488098,499.741516
	C670.414307,501.742645 674.302734,505.172180 676.531616,508.943542
	C704.465515,556.209106 732.123352,603.638184 759.772278,651.071716
	C765.858704,661.513245 761.393982,671.871277 748.850952,675.265015
	C616.440491,675.396484 484.847260,675.391296 353.254028,675.416138
	C329.108459,675.420715 304.962860,675.546936 280.817291,675.616943
z"/>
<path fill="#FDFDFD" opacity="1.000000" stroke="none"
	d="
M281.088867,675.970215
	C304.962860,675.546936 329.108459,675.420715 353.254028,675.416138
	C484.847260,675.391296 616.440491,675.396484 748.499023,675.419739
	C747.046997,675.960510 745.129944,676.920166 743.212158,676.921387
	C631.045593,676.992249 518.878906,676.983765 406.712280,676.983093
	C366.878967,676.982849 327.045624,676.992310 287.212341,676.954895
	C285.261505,676.953064 283.311035,676.543213 281.088867,675.970215
z"/>
</svg>
