<svg width="1000" height="1000" viewBox="0 0 1000 1000" fill="none" xmlns="http://www.w3.org/2000/svg">
<g clip-path="url(#clip0_1194_157)">
<g filter="url(#filter0_n_1194_157)">
<g filter="url(#filter1_ii_1194_157)">
<rect x="-1" y="-1" width="1001" height="1001" rx="200" fill="url(#paint0_linear_1194_157)"/>
<rect x="-1" y="-1" width="1001" height="1001" rx="200" fill="url(#paint1_radial_1194_157)" style="mix-blend-mode:overlay"/>
</g>
<g style="mix-blend-mode:hard-light" filter="url(#filter2_ii_1194_157)">
<path d="M528.025 267.934C550.095 300.072 573.61 331.355 596.881 362.608C621.248 395.419 633.293 424.085 619.754 465.193C612.367 488.811 603.78 512.091 594.574 535.064C588.41 551.452 601.283 560.752 613.242 547.323C634.56 523.436 653.713 497.423 673.473 472.243C697.252 442.075 712.84 451.326 730.609 480.592C767.364 540.598 805.436 599.814 841.626 660.168C849.333 673.082 847.946 693.482 828.59 693.498C634.263 694.295 439.91 693.938 245.582 693.801C222.835 693.786 200.076 693.631 177.33 693.846C156.491 693.65 149.321 675.661 159.729 658.948C170.631 640.529 182.419 622.64 193.61 604.397C213.551 571.892 233.814 539.561 253.134 506.679C268.049 482.1 288.582 490.981 307.231 504.436C323.681 515.741 331.23 499.272 339.197 486.54C387.231 410.496 434.638 334.037 483.255 258.365C499.095 237.871 516.943 251.349 528.025 267.934Z" fill="#232323"/>
<path d="M528.025 267.934C550.095 300.072 573.61 331.355 596.881 362.608C621.248 395.419 633.293 424.085 619.754 465.193C612.367 488.811 603.78 512.091 594.574 535.064C588.41 551.452 601.283 560.752 613.242 547.323C634.56 523.436 653.713 497.423 673.473 472.243C697.252 442.075 712.84 451.326 730.609 480.592C767.364 540.598 805.436 599.814 841.626 660.168C849.333 673.082 847.946 693.482 828.59 693.498C634.263 694.295 439.91 693.938 245.582 693.801C222.835 693.786 200.076 693.631 177.33 693.846C156.491 693.65 149.321 675.661 159.729 658.948C170.631 640.529 182.419 622.64 193.61 604.397C213.551 571.892 233.814 539.561 253.134 506.679C268.049 482.1 288.582 490.981 307.231 504.436C323.681 515.741 331.23 499.272 339.197 486.54C387.231 410.496 434.638 334.037 483.255 258.365C499.095 237.871 516.943 251.349 528.025 267.934Z" fill="url(#paint2_radial_1194_157)" style="mix-blend-mode:overlay"/>
</g>
</g>
</g>
<defs>
<filter id="filter0_n_1194_157" x="-1" y="-1" width="1001" height="1001" filterUnits="userSpaceOnUse" color-interpolation-filters="sRGB">
<feFlood flood-opacity="0" result="BackgroundImageFix"/>
<feBlend mode="normal" in="SourceGraphic" in2="BackgroundImageFix" result="shape"/>
<feTurbulence type="fractalNoise" baseFrequency="1.25 1.25" stitchTiles="stitch" numOctaves="3" result="noise" seed="9187" />
<feColorMatrix in="noise" type="luminanceToAlpha" result="alphaNoise" />
<feComponentTransfer in="alphaNoise" result="coloredNoise1">
<feFuncA type="discrete" tableValues="0 0 0 0 0 0 0 0 0 0 0 0 1 1 1 1 1 1 1 1 1 1 1 1 1 1 1 1 1 1 1 1 1 1 1 1 1 1 0 0 0 0 0 0 0 0 0 0 0 0 0 0 0 0 0 0 0 0 0 0 0 0 0 0 0 0 0 0 0 0 0 0 0 0 0 0 0 0 0 0 0 0 0 0 0 0 0 0 0 0 0 0 0 0 0 0 0 0 0 0 "/>
</feComponentTransfer>
<feComposite operator="in" in2="shape" in="coloredNoise1" result="noise1Clipped" />
<feComponentTransfer in="alphaNoise" result="coloredNoise2">
<feFuncA type="discrete" tableValues="0 0 0 0 0 0 0 0 0 0 0 0 0 0 0 0 0 0 0 0 0 0 0 0 0 0 0 0 0 0 0 0 0 0 0 0 0 0 0 0 0 0 0 0 0 0 0 0 0 0 0 0 0 0 0 0 0 0 0 0 0 0 1 1 1 1 1 1 1 1 1 1 1 1 1 1 1 1 1 1 1 1 1 1 1 1 1 1 0 0 0 0 0 0 0 0 0 0 0 0 "/>
</feComponentTransfer>
<feComposite operator="in" in2="shape" in="coloredNoise2" result="noise2Clipped" />
<feFlood flood-color="rgba(255, 255, 255, 0.1)" result="color1Flood" />
<feComposite operator="in" in2="noise1Clipped" in="color1Flood" result="color1" />
<feFlood flood-color="rgba(0, 0, 0, 0.1)" result="color2Flood" />
<feComposite operator="in" in2="noise2Clipped" in="color2Flood" result="color2" />
<feMerge result="effect1_noise_1194_157">
<feMergeNode in="shape" />
<feMergeNode in="color1" />
<feMergeNode in="color2" />
</feMerge>
</filter>
<filter id="filter1_ii_1194_157" x="-1" y="-2.80917" width="1001" height="1004.62" filterUnits="userSpaceOnUse" color-interpolation-filters="sRGB">
<feFlood flood-opacity="0" result="BackgroundImageFix"/>
<feBlend mode="normal" in="SourceGraphic" in2="BackgroundImageFix" result="shape"/>
<feColorMatrix in="SourceAlpha" type="matrix" values="0 0 0 0 0 0 0 0 0 0 0 0 0 0 0 0 0 0 127 0" result="hardAlpha"/>
<feOffset dy="-3.61835"/>
<feGaussianBlur stdDeviation="0.904587"/>
<feComposite in2="hardAlpha" operator="arithmetic" k2="-1" k3="1"/>
<feColorMatrix type="matrix" values="0 0 0 0 0 0 0 0 0 0 0 0 0 0 0 0 0 0 0.5 0"/>
<feBlend mode="normal" in2="shape" result="effect1_innerShadow_1194_157"/>
<feColorMatrix in="SourceAlpha" type="matrix" values="0 0 0 0 0 0 0 0 0 0 0 0 0 0 0 0 0 0 127 0" result="hardAlpha"/>
<feOffset dy="3.61835"/>
<feGaussianBlur stdDeviation="0.904587"/>
<feComposite in2="hardAlpha" operator="arithmetic" k2="-1" k3="1"/>
<feColorMatrix type="matrix" values="0 0 0 0 1 0 0 0 0 1 0 0 0 0 1 0 0 0 0.4 0"/>
<feBlend mode="normal" in2="effect1_innerShadow_1194_157" result="effect2_innerShadow_1194_157"/>
</filter>
<filter id="filter2_ii_1194_157" x="155" y="248" width="701" height="456" filterUnits="userSpaceOnUse" color-interpolation-filters="sRGB">
<feFlood flood-opacity="0" result="BackgroundImageFix"/>
<feBlend mode="normal" in="SourceGraphic" in2="BackgroundImageFix" result="shape"/>
<feColorMatrix in="SourceAlpha" type="matrix" values="0 0 0 0 0 0 0 0 0 0 0 0 0 0 0 0 0 0 127 0" result="hardAlpha"/>
<feOffset dx="10" dy="10"/>
<feGaussianBlur stdDeviation="20"/>
<feComposite in2="hardAlpha" operator="arithmetic" k2="-1" k3="1"/>
<feColorMatrix type="matrix" values="0 0 0 0 0 0 0 0 0 0 0 0 0 0 0 0 0 0 1 0"/>
<feBlend mode="overlay" in2="shape" result="effect1_innerShadow_1194_157"/>
<feColorMatrix in="SourceAlpha" type="matrix" values="0 0 0 0 0 0 0 0 0 0 0 0 0 0 0 0 0 0 127 0" result="hardAlpha"/>
<feOffset dx="10" dy="10"/>
<feGaussianBlur stdDeviation="100"/>
<feComposite in2="hardAlpha" operator="arithmetic" k2="-1" k3="1"/>
<feColorMatrix type="matrix" values="0 0 0 0 0 0 0 0 0 0 0 0 0 0 0 0 0 0 0.4 0"/>
<feBlend mode="soft-light" in2="effect1_innerShadow_1194_157" result="effect2_innerShadow_1194_157"/>
</filter>
<linearGradient id="paint0_linear_1194_157" x1="-1" y1="662.207" x2="1048.46" y2="364.638" gradientUnits="userSpaceOnUse">
<stop offset="0.0677083" stop-color="#576265"/>
<stop offset="0.21875" stop-color="#9EA1A1"/>
<stop offset="0.453125" stop-color="#848B8A"/>
<stop offset="0.524381" stop-color="#576265"/>
<stop offset="0.796875" stop-color="#576265"/>
<stop offset="0.895833" stop-color="#757A7B"/>
<stop offset="1" stop-color="#576265"/>
</linearGradient>
<radialGradient id="paint1_radial_1194_157" cx="0" cy="0" r="1" gradientTransform="matrix(458.991 801.154 -801.154 563.257 -1.00002 -87.659)" gradientUnits="userSpaceOnUse">
<stop stop-color="white"/>
<stop offset="1" stop-color="white" stop-opacity="0"/>
</radialGradient>
<radialGradient id="paint2_radial_1194_157" cx="0" cy="0" r="1" gradientTransform="matrix(316.846 356.958 -553.044 250.962 155 209.389)" gradientUnits="userSpaceOnUse">
<stop stop-color="white"/>
<stop offset="1" stop-color="white" stop-opacity="0"/>
</radialGradient>
<clipPath id="clip0_1194_157">
<rect width="1000" height="1000" fill="white"/>
</clipPath>
</defs>
</svg>
